<svg width="22" height="21" viewBox="0 0 22 21" fill="none" xmlns="http://www.w3.org/2000/svg">
<path d="M6.33341 10.4998L10.3334 13.8332L15.6667 7.1665M11.0001 19.8332C9.77441 19.8332 8.56074 19.5918 7.42837 19.1227C6.296 18.6537 5.2671 17.9662 4.40042 17.0995C3.53374 16.2328 2.84625 15.2039 2.37721 14.0715C1.90816 12.9392 1.66675 11.7255 1.66675 10.4998C1.66675 9.27417 1.90816 8.0605 2.37721 6.92812C2.84625 5.79575 3.53374 4.76685 4.40042 3.90017C5.2671 3.03349 6.296 2.34601 7.42837 1.87696C8.56074 1.40792 9.77441 1.1665 11.0001 1.1665C13.4754 1.1665 15.8494 2.14983 17.5997 3.90017C19.3501 5.65051 20.3334 8.02448 20.3334 10.4998C20.3334 12.9752 19.3501 15.3492 17.5997 17.0995C15.8494 18.8498 13.4754 19.8332 11.0001 19.8332Z" stroke="white" stroke-width="2"/>
</svg>
