<svg width="20" height="21" viewBox="0 0 20 21" fill="none" xmlns="http://www.w3.org/2000/svg">
<path d="M7 6.5L13 14.5M13 6.5L7 14.5M10 19.5C12.3869 19.5 14.6761 18.5518 16.364 16.864C18.0518 15.1761 19 12.8869 19 10.5C19 8.11305 18.0518 5.82387 16.364 4.13604C14.6761 2.44821 12.3869 1.5 10 1.5C7.61305 1.5 5.32387 2.44821 3.63604 4.13604C1.94821 5.82387 1 8.11305 1 10.5C1 12.8869 1.94821 15.1761 3.63604 16.864C5.32387 18.5518 7.61305 19.5 10 19.5Z" stroke="white" stroke-width="2" stroke-linecap="round" stroke-linejoin="round"/>
</svg>
