<svg width="30" height="31" viewBox="0 0 30 31" fill="none" xmlns="http://www.w3.org/2000/svg">
<path d="M27.259 10.6869L26.889 12.3722C26.5533 13.9014 26.0956 15.396 25.5216 16.8372C24.9537 18.2633 24.1623 19.5654 23.187 20.6786L22.6936 21.2418C22.4018 21.5748 22.057 21.8413 21.6785 22.0265L21.5368 22.0958C20.4183 22.6429 19.2184 22.9253 18.0118 22.9253L17.4303 22.9253L18.8632 20.8812C19.7298 19.6449 20.3041 18.1822 20.5298 16.6365L19.1523 16.6365L19.0911 16.6365C18.9034 16.6365 18.716 16.6691 18.5355 16.7331C17.3515 17.1527 16.2475 17.8353 15.2886 18.7405L15.0197 18.9944L15.0194 17.0293L15.4945 15.945C15.8642 15.1012 16.3524 14.3287 16.9393 13.6588C17.0369 13.5475 17.1439 13.4474 17.2586 13.36L17.5464 13.141C18.6085 12.3327 19.7828 11.7392 21.0156 11.3874L21.9805 11.1121C22.9701 10.8297 23.9837 10.6869 24.998 10.6869L27.259 10.6869Z" fill="#CFCAB6"/>
<path d="M2.60093 5.02157L3.7647 5.28258C4.88796 5.5345 5.98867 5.89969 7.05389 6.37386C8.07937 6.83034 9.02657 7.48627 9.85364 8.31267L10.3215 8.78015C10.5739 9.03232 10.7835 9.33523 10.94 9.67403L10.9933 9.78932C11.4611 10.802 11.7481 11.9118 11.8378 13.0549L11.8752 13.5331L10.3018 12.2713C9.39861 11.5469 8.34968 11.092 7.2498 10.9478L7.34879 12.2105L7.35221 12.2542C7.36635 12.4346 7.40374 12.6114 7.46317 12.7789C7.84089 13.8439 8.39072 14.8171 9.08419 15.6483L9.29644 15.9027L7.92072 15.9829L7.13935 15.5974C6.51366 15.2887 5.93437 14.871 5.42207 14.3591C5.33778 14.2749 5.26069 14.1817 5.19184 14.0808L5.01916 13.8279C4.37493 12.8842 3.87263 11.8244 3.53255 10.6912L3.28615 9.8702C3.01182 8.95609 2.83496 8.00685 2.75939 7.04286L2.60093 5.02157Z" fill="#CFCAB6"/>
<path d="M23.0494 2.54622L22.8782 3.65061C22.7313 4.59796 22.5067 5.52896 22.2073 6.43132C21.9034 7.34766 21.4475 8.1913 20.8649 8.9157L20.6023 9.24224C20.4313 9.45487 20.2239 9.62542 19.9934 9.74305L19.8995 9.79094C19.2256 10.1347 18.4977 10.3123 17.7639 10.312L17.3649 10.3118L18.1633 9.04658C18.6709 8.24223 18.9813 7.30077 19.0621 6.32092L18.198 6.32054L18.152 6.32051C18.0393 6.32047 17.9271 6.34055 17.8193 6.38003C17.0911 6.64682 16.4182 7.08548 15.8451 7.66709L15.6983 7.81602L15.6209 6.56868L15.88 5.87071C16.0762 5.34212 16.351 4.85485 16.6922 4.43065C16.7494 4.35947 16.8131 4.29541 16.8822 4.23957L17.0554 4.09959C17.688 3.58839 18.3962 3.21351 19.1444 2.99391L19.7724 2.80956C20.3704 2.63402 20.9843 2.54532 21.5994 2.54559L23.0494 2.54622Z" fill="#CFCAB6"/>
<path d="M10.3964 1.49754L11.9067 2.44158L12.2965 2.77486L13.1144 3.83226L13.8084 5.01092C13.9737 5.29169 14.0627 5.61759 14.0662 5.95592C14.0722 6.52142 13.972 7.08954 13.7713 7.62835L13.6368 7.98955L13.0954 6.91701C12.7888 6.3097 12.3389 5.79991 11.7854 5.43257L11.5349 6.10526L11.5269 6.12668C11.4907 6.22399 11.4679 6.32543 11.4594 6.42781C11.4054 7.07309 11.4651 7.7159 11.6355 8.32418L11.6888 8.51448L10.9341 8.18857L10.6103 7.78446C10.3491 7.45842 10.1395 7.08965 9.98853 6.69078C9.96376 6.62533 9.94498 6.55724 9.93244 6.48739L9.90098 6.31223C9.78326 5.65686 9.76957 4.97926 9.86045 4.30584L10.0354 3.00929L10.3964 1.49754Z" fill="#CFCAB6"/>
<path d="M16.7413 8.77442L15.3637 10.7398L14.3306 12.7051M14.3306 12.7051L13.6545 11.4191C13.5208 11.1647 13.4539 11.0375 13.3965 10.9063C13.3455 10.7896 13.3 10.6706 13.2604 10.5496C13.2157 10.4134 13.1808 10.274 13.111 9.99526L12.6086 7.98828M14.3306 12.7051L14.2223 12.9522C13.381 14.8727 12.8369 16.91 12.6086 18.9942V18.9942M12.6086 18.9942V18.9942C12.538 18.8061 12.5026 18.712 12.4688 18.6245C11.8611 17.0509 11.0566 15.5605 10.0748 14.1889C10.0202 14.1126 9.96461 14.0365 9.85352 13.8843V13.8843M12.6086 18.9942L12.5602 19.3808C12.3638 20.9502 12.3801 22.539 12.6086 24.1042V24.1042M12.6086 24.1042L13.06 23.8179C13.1525 23.7593 13.1987 23.73 13.2445 23.7006C14.8724 22.6565 16.3482 21.3926 17.6301 19.9447C17.6662 19.9039 17.7023 19.8627 17.7744 19.7804V19.7804M12.6086 24.1042L12.633 24.3271C12.8455 26.2672 13.3001 28.1731 13.9862 30.0002V30.0002" stroke="#CFCAB6" stroke-width="2"/>
</svg>
