<svg width="30" height="30" viewBox="0 0 30 30" fill="none" xmlns="http://www.w3.org/2000/svg">
<circle cx="15" cy="15" r="14" stroke="#CFCAB6" stroke-width="2"/>
<path d="M12.9243 18.2271C12.9243 18.2026 12.9284 18.1497 12.9365 18.0684C12.9447 17.987 12.9528 17.9015 12.9609 17.812C12.9772 17.7144 12.9894 17.6248 12.9976 17.5435C13.0057 17.4621 13.0098 17.4092 13.0098 17.3848V13.3931C13.0993 13.2303 13.2173 13.0879 13.3638 12.9658C13.5103 12.8438 13.673 12.7827 13.8521 12.7827C13.9578 12.7827 14.0433 12.7949 14.1084 12.8193C14.1816 12.8438 14.2671 12.8926 14.3647 12.9658C14.5601 13.0553 14.7472 13.1001 14.9263 13.1001C15.1134 13.1001 15.3169 13.0553 15.5366 12.9658C15.5773 12.9577 15.6383 12.9373 15.7197 12.9048C15.8092 12.8641 15.8621 12.8356 15.8784 12.8193C15.9761 12.7705 16.0534 12.7298 16.1104 12.6973C16.1755 12.6566 16.2284 12.6159 16.269 12.5752C16.3179 12.5345 16.3626 12.4857 16.4033 12.4287C16.4521 12.3717 16.5091 12.2985 16.5742 12.209C16.5905 12.1927 16.6149 12.1602 16.6475 12.1113C16.6882 12.0625 16.7126 12.0381 16.7207 12.0381C16.7451 12.0218 16.7939 12.0096 16.8672 12.0015C16.9404 11.9852 16.9852 11.9771 17.0015 11.9771C17.0177 11.9526 17.0422 11.9201 17.0747 11.8794C17.1073 11.8306 17.1317 11.798 17.1479 11.7817C17.2537 11.619 17.3636 11.4196 17.4775 11.1836C17.5915 10.9395 17.6484 10.6953 17.6484 10.4512V10.439C17.6484 10.4227 17.6403 10.3942 17.624 10.3535C17.6077 10.3047 17.5915 10.2681 17.5752 10.2437C17.4368 10.0483 17.3229 9.83268 17.2334 9.59668C17.152 9.36068 17.0625 9.12467 16.9648 8.88867C16.8753 8.65267 16.7695 8.42887 16.6475 8.21729C16.5254 7.99756 16.3626 7.80632 16.1592 7.64355C16.1185 7.611 16.0534 7.57438 15.9639 7.53369C15.8825 7.493 15.8337 7.47266 15.8174 7.47266C15.6546 7.51335 15.4878 7.53776 15.3169 7.5459C15.1541 7.55404 14.9832 7.55811 14.8042 7.55811C14.6333 7.55811 14.4624 7.55404 14.2915 7.5459C14.1287 7.53776 13.9538 7.51335 13.7666 7.47266C13.6527 7.45638 13.5387 7.40348 13.4248 7.31396C13.319 7.22445 13.2173 7.11865 13.1196 6.99658C13.0301 6.86637 12.9569 6.7321 12.8999 6.59375C12.8429 6.4554 12.8145 6.33333 12.8145 6.22754C12.8145 5.90202 12.8674 5.63346 12.9731 5.42188C13.0871 5.21029 13.2417 5.04346 13.437 4.92139C13.6323 4.79118 13.8602 4.70166 14.1206 4.65283C14.3892 4.604 14.674 4.57959 14.9751 4.57959C15.1134 4.57959 15.2884 4.58366 15.5 4.5918C15.7197 4.59993 15.9028 4.63249 16.0493 4.68945C16.0737 4.69759 16.1266 4.72201 16.208 4.7627C16.2975 4.79525 16.387 4.83594 16.4766 4.88477C16.5742 4.93359 16.6597 4.98242 16.7329 5.03125C16.8143 5.07194 16.8672 5.10042 16.8916 5.1167C16.9974 5.16553 17.1073 5.20622 17.2212 5.23877C17.3351 5.26318 17.4287 5.33236 17.502 5.44629C17.5101 5.45443 17.5182 5.47884 17.5264 5.51953C17.5426 5.55208 17.5589 5.59277 17.5752 5.6416C17.5915 5.69043 17.6077 5.73926 17.624 5.78809C17.6403 5.82878 17.6484 5.85726 17.6484 5.87354C17.7868 6.08512 17.9333 6.28451 18.0879 6.47168C18.2507 6.65885 18.3605 6.88265 18.4175 7.14307C18.4256 7.1512 18.4338 7.18376 18.4419 7.24072C18.4582 7.29769 18.4704 7.35872 18.4785 7.42383C18.4867 7.48893 18.4907 7.54997 18.4907 7.60693C18.4989 7.6639 18.5029 7.69645 18.5029 7.70459C18.5273 7.80225 18.568 7.8999 18.625 7.99756C18.682 8.08708 18.7389 8.1766 18.7959 8.26611C18.861 8.35563 18.9139 8.44515 18.9546 8.53467C19.0034 8.62419 19.0278 8.72184 19.0278 8.82764C19.0278 8.9904 19.0075 9.15316 18.9668 9.31592C18.9342 9.47054 18.918 9.6333 18.918 9.8042C18.918 9.96696 18.922 10.1094 18.9302 10.2314C18.9383 10.3454 18.9709 10.5041 19.0278 10.7075C19.0278 10.7238 19.04 10.7645 19.0645 10.8296C19.097 10.8866 19.1133 10.9232 19.1133 10.9395V11.0249V11.1348C19.097 11.1999 19.0767 11.2894 19.0522 11.4033C19.036 11.5173 19.0197 11.6312 19.0034 11.7451C18.9871 11.859 18.9709 11.9608 18.9546 12.0503C18.9383 12.1398 18.9261 12.1927 18.918 12.209C18.918 12.2171 18.9058 12.2456 18.8813 12.2944C18.8651 12.3351 18.8407 12.3799 18.8081 12.4287C18.7837 12.4775 18.7593 12.5223 18.7349 12.563C18.7104 12.6037 18.6942 12.6281 18.686 12.6362C18.6698 12.6525 18.6494 12.6851 18.625 12.7339C18.6087 12.7746 18.6006 12.8031 18.6006 12.8193C18.5924 12.8356 18.5762 12.8885 18.5518 12.978C18.5273 13.0675 18.5111 13.1286 18.5029 13.1611C18.5029 13.1774 18.4785 13.2181 18.4297 13.2832C18.3809 13.3402 18.3564 13.3768 18.3564 13.3931C18.332 13.4256 18.2954 13.4867 18.2466 13.5762C18.2059 13.6576 18.1855 13.7104 18.1855 13.7349C18.1693 13.7511 18.1489 13.7959 18.1245 13.8691C18.1082 13.9424 18.092 13.9871 18.0757 14.0034C17.9862 14.1174 17.8804 14.2313 17.7583 14.3452C17.6444 14.4591 17.5142 14.569 17.3677 14.6748C17.2293 14.7725 17.0828 14.8579 16.9282 14.9312C16.7817 15.0044 16.6312 15.0532 16.4766 15.0776H16.2812H15.8174C15.8011 15.0858 15.7686 15.098 15.7197 15.1143C15.679 15.1305 15.6343 15.1509 15.5854 15.1753C15.5366 15.1997 15.4919 15.2201 15.4512 15.2363C15.4186 15.2526 15.3983 15.2648 15.3901 15.2729H14.6943C14.5885 15.3136 14.5234 15.3991 14.499 15.5293C14.4746 15.6514 14.4543 15.7572 14.438 15.8467V16.4692V17.104C14.4543 17.2668 14.4868 17.4255 14.5356 17.5801C14.5845 17.7347 14.6089 17.8934 14.6089 18.0562C14.6089 18.1864 14.5804 18.3166 14.5234 18.4468C14.4746 18.577 14.4054 18.6991 14.3159 18.813C14.2264 18.9188 14.1206 19.0083 13.9985 19.0815C13.8846 19.1466 13.7666 19.1792 13.6445 19.1792C13.5306 19.1792 13.4289 19.1507 13.3394 19.0938C13.2498 19.0368 13.1725 18.9635 13.1074 18.874C13.0505 18.7764 13.0057 18.6746 12.9731 18.5688C12.9406 18.4549 12.9243 18.341 12.9243 18.2271ZM12.3262 22.3652C12.3262 22.3408 12.3221 22.292 12.314 22.2188C12.3058 22.1455 12.2977 22.0723 12.2896 21.999C12.2814 21.9176 12.2733 21.8403 12.2651 21.7671C12.257 21.6938 12.2529 21.641 12.2529 21.6084V21.5229V21.3521C12.2529 21.2381 12.2611 21.116 12.2773 20.9858C12.2936 20.8556 12.3343 20.7539 12.3994 20.6807C12.6354 20.4528 12.904 20.2819 13.2051 20.168C13.5143 20.054 13.8276 19.9971 14.145 19.9971C14.3322 19.9971 14.499 20.054 14.6455 20.168C14.8001 20.2738 14.9303 20.408 15.0361 20.5708C15.1501 20.7254 15.2355 20.8963 15.2925 21.0835C15.3576 21.2625 15.3901 21.4294 15.3901 21.584C15.3901 21.7467 15.3617 21.8892 15.3047 22.0112C15.2559 22.1252 15.1867 22.2269 15.0972 22.3164C15.0076 22.4059 14.9059 22.4873 14.792 22.5605C14.6781 22.6338 14.5601 22.7111 14.438 22.7925C14.4299 22.7925 14.4054 22.8128 14.3647 22.8535C14.3241 22.8861 14.2793 22.9227 14.2305 22.9634C14.1816 22.9959 14.1369 23.0285 14.0962 23.061C14.0555 23.1017 14.0311 23.1221 14.0229 23.1221H13.9131C13.7829 23.1221 13.6445 23.0977 13.498 23.0488C13.3516 23.0081 13.2051 22.9552 13.0586 22.8901C12.9202 22.8169 12.786 22.7355 12.6558 22.646C12.5256 22.5565 12.4157 22.4629 12.3262 22.3652Z" fill="#CFCAB6"/>
</svg>
