<svg width="18" height="19" viewBox="0 0 18 19" fill="none" xmlns="http://www.w3.org/2000/svg">
<path d="M0.547852 18.438H17.4479C17.5805 18.438 17.7076 18.3853 17.8014 18.2915C17.8952 18.1978 17.9479 18.0706 17.9479 17.938C17.9479 17.8054 17.8952 17.6782 17.8014 17.5844C17.7076 17.4907 17.5805 17.438 17.4479 17.438H0.547852C0.415243 17.438 0.288066 17.4907 0.194298 17.5844C0.10053 17.6782 0.0478516 17.8054 0.0478516 17.938C0.0478516 18.0706 0.10053 18.1978 0.194298 18.2915C0.288066 18.3853 0.415243 18.438 0.547852 18.438ZM6.70985 14.68C7.13203 14.5612 7.51731 14.3376 7.82985 14.03L17.3699 4.48999C17.6966 4.162 17.88 3.71793 17.88 3.25499C17.88 2.79205 17.6966 2.34798 17.3699 2.01999L16.4299 1.08999C16.097 0.7727 15.6547 0.595703 15.1949 0.595703C14.735 0.595703 14.2927 0.7727 13.9599 1.08999L4.41985 10.62C4.11222 10.9309 3.89154 11.3171 3.77985 11.74L3.03985 14.5C3.00506 14.6261 3.00431 14.7591 3.03769 14.8856C3.07107 15.0121 3.13737 15.1275 3.22985 15.22C3.37157 15.3589 3.56144 15.4377 3.75985 15.44L6.70985 14.68ZM7.11985 13.32C6.93544 13.5076 6.70406 13.6423 6.44985 13.71L5.47985 13.97L4.47985 12.97L4.73985 12C4.8089 11.7463 4.94339 11.5153 5.12985 11.33L5.50985 10.96L7.49985 12.95L7.11985 13.32ZM8.20985 12.24L6.21985 10.25L12.9499 3.51999L14.9399 5.50999L8.20985 12.24ZM16.6599 3.78999L15.6499 4.79999L13.6599 2.80999L14.6699 1.78999C14.8105 1.64954 15.0011 1.57065 15.1999 1.57065C15.3986 1.57065 15.5892 1.64954 15.7299 1.78999L16.6599 2.72999C16.7993 2.87113 16.8776 3.06156 16.8776 3.25999C16.8776 3.45842 16.7993 3.64885 16.6599 3.78999Z" fill="white"/>
</svg>
