<svg width="69" height="86" viewBox="0 0 69 86" fill="none" xmlns="http://www.w3.org/2000/svg">
<path d="M65.55 36.808V36.9456C61.065 36.9456 56.925 37.3584 53.751 38.184C53.751 38.184 53.751 38.184 53.682 38.184C51.75 38.6656 50.301 40.1792 49.749 42.0368V42.1056C48.921 45.2704 48.507 49.3984 48.507 53.8704H48.438H48.369C48.369 49.3984 47.955 45.2704 47.127 42.1056C47.127 42.1056 47.127 42.1056 47.127 42.0368C46.644 40.1104 45.126 38.6656 43.194 38.1152C43.194 38.1152 43.194 38.1152 43.125 38.1152C40.02 37.2896 35.88 36.8768 31.395 36.8768V36.808V36.7392C35.88 36.7392 40.02 36.3264 43.194 35.5008H43.263C45.195 35.0192 46.644 33.5056 47.127 31.5792C47.127 31.5792 47.127 31.5792 47.127 31.5104C47.955 28.3456 48.369 24.2176 48.369 19.7456H48.438H48.507C48.507 24.2176 48.921 28.3456 49.749 31.5104C49.749 31.5104 49.749 31.5104 49.749 31.5792C50.232 33.5056 51.75 34.9504 53.613 35.5008C53.613 35.5008 53.613 35.5008 53.682 35.5008C56.856 36.3264 60.996 36.7392 65.481 36.7392L65.55 36.808Z" fill="#FA7C68"/>
<path d="M39.675 19.7456V19.8144C36.294 19.8144 33.189 20.1584 30.843 20.7088C29.394 21.0528 28.29 22.2224 27.876 23.5984C27.876 23.5984 27.876 23.5984 27.876 23.6672C27.255 26.0064 26.979 29.1712 26.979 32.4736H26.91H26.841C26.841 29.1024 26.496 26.0064 25.944 23.6672C25.944 23.6672 25.944 23.6672 25.944 23.5984C25.599 22.1536 24.426 21.0528 23.046 20.7088C23.046 20.7088 23.046 20.7088 22.977 20.7088C20.631 20.0896 17.457 19.8144 14.145 19.8144V19.7456V19.6768C17.526 19.6768 20.631 19.3328 22.977 18.7824C22.977 18.7824 22.977 18.7824 23.046 18.7824C24.495 18.4384 25.599 17.2688 25.944 15.824C26.565 13.4848 26.841 10.32 26.841 7.01758H26.91H26.979C26.979 10.3888 27.324 13.4848 27.876 15.824C27.876 15.824 27.876 15.824 27.876 15.8928C28.221 17.3376 29.394 18.4384 30.774 18.7824C30.774 18.7824 30.774 18.7824 30.843 18.7824C33.189 19.4016 36.294 19.7456 39.675 19.7456Z" fill="#FA7C68"/>
<path d="M26.979 47.1968C25.323 47.2656 23.736 47.4032 22.563 47.6784C21.873 47.8848 21.321 48.4352 21.114 49.1232C20.838 50.2928 20.631 51.8752 20.631 53.5264C20.631 51.8752 20.493 50.2928 20.148 49.1232C19.941 48.4352 19.389 47.8848 18.699 47.6784C17.526 47.4032 15.939 47.1968 14.283 47.1968C15.939 47.1968 17.526 47.0592 18.699 46.7152C19.389 46.5088 19.941 45.9584 20.148 45.2704C20.424 44.1008 20.631 42.5184 20.631 40.8672C20.631 42.5184 20.769 44.1008 21.114 45.2704C21.321 45.9584 21.873 46.5088 22.563 46.7152C23.736 46.9904 25.323 47.128 26.979 47.1968Z" fill="#FA7C68"/>
</svg>
