<svg width="30" height="30" stroke="inherit" viewBox="0 0 30 30" fill="none" xmlns="http://www.w3.org/2000/svg">
<path d="M26.1373 13.9004C26.1373 20.0129 21.6998 25.7379 15.6373 27.4129C15.2248 27.5254 14.7748 27.5254 14.3623 27.4129C8.2998 25.7379 3.8623 20.0129 3.8623 13.9004V8.41285C3.8623 7.38785 4.63732 6.22535 5.59982 5.83785L12.5623 2.98789C14.1248 2.35039 15.8873 2.35039 17.4498 2.98789L24.4123 5.83785C25.3623 6.22535 26.1498 7.38785 26.1498 8.41285L26.1373 13.9004Z" stroke="inherit" stroke-width="2" stroke-linecap="round" stroke-linejoin="round"/>
<path d="M15 15.625C16.3807 15.625 17.5 14.5057 17.5 13.125C17.5 11.7443 16.3807 10.625 15 10.625C13.6193 10.625 12.5 11.7443 12.5 13.125C12.5 14.5057 13.6193 15.625 15 15.625Z" stroke="inherit" stroke-width="2" stroke-miterlimit="10" stroke-linecap="round" stroke-linejoin="round"/>
<path d="M15 15.625V19.375" stroke="inherit" stroke-width="2" stroke-miterlimit="10" stroke-linecap="round" stroke-linejoin="round"/>
</svg>
