<svg width="31" height="30" viewBox="0 0 31 30" fill="none" xmlns="http://www.w3.org/2000/svg">
<path d="M22.0085 11.6128C22.4967 12.1009 22.4967 12.8924 22.0085 13.3805C21.5204 13.8687 20.7289 13.8687 20.2407 13.3805L16.752 9.89178V18.7496C16.752 19.44 16.1923 19.9996 15.502 19.9996C14.8116 19.9996 14.252 19.44 14.252 18.7496V9.89181L10.7608 13.383C10.2727 13.8711 9.48123 13.8711 8.99307 13.383C8.50491 12.8948 8.50491 12.1034 8.99307 11.6152L14.6181 5.99014C14.8525 5.75572 15.1705 5.62402 15.502 5.62402C15.8335 5.62402 16.1515 5.75572 16.3859 5.99014L22.0085 11.6128Z" fill="white"/>
<path fill-rule="evenodd" clip-rule="evenodd" d="M5.5 17.5C6.19036 17.5 6.75 18.0596 6.75 18.75V21.25C6.75 21.9404 7.30964 22.5 8 22.5H23C23.6904 22.5 24.25 21.9404 24.25 21.25V18.75C24.25 18.0596 24.8096 17.5 25.5 17.5C26.1904 17.5 26.75 18.0596 26.75 18.75V21.25C26.75 23.3211 25.0711 25 23 25H8C5.92893 25 4.25 23.3211 4.25 21.25V18.75C4.25 18.0596 4.80964 17.5 5.5 17.5Z" fill="white"/>
</svg>
