<svg width="83" height="65" viewBox="0 0 83 65" fill="none" xmlns="http://www.w3.org/2000/svg">
<path d="M67.9777 52.844C72.7791 50.8913 77.7743 47.7261 82.6276 42.7596C59.2074 36.0169 43.6815 47.8937 39.769 51.7891C35.5172 53.325 31.6019 55.7546 28.937 57.6338C30.1543 55.0204 32.8118 49.8939 36.5458 45.8268C41.828 45.2752 62.1326 41.6001 69.4283 17.3538C45.4749 21.9491 37.2404 39.5125 35.5852 44.7413C30.9646 49.7048 27.9913 56.122 27.1082 58.1623C27.8777 55.5388 29.4648 49.3054 29.1863 43.1323C31.3308 38.0791 36.4811 19.4145 21.1143 0.78002C10.8801 23.976 24.0519 39.6042 27.7415 43.3589C27.9435 48.6202 26.7388 54.0195 25.9582 56.8921C25.4164 54.3621 24.6226 51.5437 23.4456 48.8802C23.6038 43.3988 21.6054 24.164 0.456015 12.1707C-0.636954 37.4379 17.3663 47.3856 22.1595 49.5896C23.785 53.2863 24.6446 57.3317 25.1115 60.3686C25.0871 60.3786 25.0578 60.3892 25.0335 60.3992L25.1257 60.4584C25.1315 60.4957 25.1389 60.5363 25.1438 60.5731L25.2251 60.6136C25.1293 60.8554 25.1585 61.132 25.3398 61.3404C25.6116 61.6366 26.063 61.6623 26.3656 61.4085C26.3709 61.4035 26.4082 61.3713 26.4674 61.3198L26.5191 61.3536C26.5535 61.3403 26.5934 61.3254 26.6292 61.3117L26.7291 61.3616C26.7249 61.3354 26.721 61.3048 26.7167 61.2785C29.6251 60.1584 33.6174 58.8679 37.6882 58.403C42.0264 61.3816 59.7917 71.7346 81.5039 58.1701C76.8015 55.4989 72.2555 53.8178 67.9777 52.844ZM26.8111 59.2049C26.8026 59.2114 26.7923 59.2192 26.7825 59.2261C26.788 59.2088 26.7958 59.1837 26.8019 59.1656C26.8046 59.1785 26.8088 59.1911 26.8111 59.2049ZM37.6731 56.9562C35.011 57.2558 32.3986 57.8878 30.0687 58.603C32.6232 56.8291 36.2387 54.6131 40.1125 53.1861C40.8908 53.4849 42.0377 53.8815 43.4848 54.2704C40.8399 55.2211 38.8501 56.2439 37.6731 56.9562Z" fill="url(#paint0_linear_678_42)"/>
<defs>
<linearGradient id="paint0_linear_678_42" x1="55.9399" y1="9.69841" x2="26.2978" y2="61.926" gradientUnits="userSpaceOnUse">
<stop offset="0.446" stop-color="#F9BBB1"/>
<stop offset="1" stop-color="#C0C0C0"/>
</linearGradient>
</defs>
</svg>
